<svg width="357" height="229" viewBox="0 0 357 229" fill="none" xmlns="http://www.w3.org/2000/svg">
<g clip-path="url(#clip0_102_273)">
<path d="M237.432 62.0858L228.922 60.3071L220.23 87.9886L205.388 114.081C204.343 114.116 203.331 114.518 202.48 115.235C201.63 115.952 200.98 116.952 200.613 118.107C200.247 119.263 200.18 120.521 200.422 121.721C200.665 122.921 201.204 124.008 201.973 124.844C202.741 125.681 203.704 126.228 204.737 126.415C205.77 126.603 206.827 126.423 207.773 125.899C208.719 125.374 209.512 124.529 210.049 123.47C210.586 122.412 210.843 121.189 210.788 119.957L228.916 95.2951L237.432 62.0858Z" fill="#FFB7B7"/>
<path d="M266.56 27.5945C266.56 37.5471 258.761 36.0417 249.141 36.0417C239.521 36.0417 231.723 37.5471 231.723 27.5945C231.723 17.6418 235.532 0 249.141 0C263.22 0 266.56 17.6418 266.56 27.5945Z" fill="#2F2E41"/>
<path d="M298.586 114.187L283.213 82.9786L276.055 54.6924L267.465 55.8187L274.146 89.6078L291.258 116.178C290.723 117.219 290.459 118.423 290.5 119.639C290.542 120.856 290.886 122.031 291.49 123.018C292.095 124.005 292.932 124.76 293.898 125.188C294.864 125.617 295.915 125.699 296.921 125.426C297.927 125.153 298.842 124.536 299.551 123.652C300.261 122.768 300.735 121.657 300.912 120.458C301.09 119.259 300.964 118.024 300.55 116.908C300.137 115.793 299.453 114.846 298.586 114.187Z" fill="#FFB7B7"/>
<path d="M283.332 163.877L300.989 220.756H308.253L295.792 161.837L283.332 163.877Z" fill="#FFB7B7"/>
<path d="M244.677 166.975L227.02 223.853H219.756L232.216 164.935L244.677 166.975Z" fill="#FFB7B7"/>
<path d="M262.811 43.3625C262.811 43.3625 269.97 40.5467 271.879 44.4888C273.788 48.4309 278.56 60.8202 278.56 60.8202L269.015 62.5097L277.605 87.8515C277.605 87.8515 289.536 98.5514 292.399 122.767C295.263 146.983 298.126 166.693 298.126 166.693C298.126 166.693 248.495 176.266 229.406 172.324C229.406 172.324 230.837 160.498 234.655 159.935C231.792 156.556 235.564 153.74 235.564 153.74L244.2 117.135L246.109 99.1146C246.109 99.1146 242.784 80.6868 238.473 77.1516C234.162 73.6165 235.61 63.636 235.61 63.636L227.02 64.1991C227.02 64.1991 227.974 46.1783 232.269 46.1783H237.518L262.811 43.3625Z" fill="#2F2E41"/>
<path d="M309.148 228.127L290.283 228.127V227.845C290.283 225.547 291.057 223.343 292.434 221.718C293.811 220.093 295.679 219.18 297.626 219.18L309.149 219.181L309.148 228.127Z" fill="#2F2E41"/>
<path d="M228.974 228.127L210.109 228.127V227.845C210.11 225.547 210.883 223.343 212.26 221.718C213.637 220.093 215.505 219.18 217.452 219.18L228.975 219.181L228.974 228.127Z" fill="#2F2E41"/>
<path d="M249.909 35.0187C256.382 35.0187 261.63 28.8261 261.63 21.1871C261.63 13.5481 256.382 7.35547 249.909 7.35547C243.435 7.35547 238.188 13.5481 238.188 21.1871C238.188 28.8261 243.435 35.0187 249.909 35.0187Z" fill="#FFB7B7"/>
<path d="M235.541 20.8368H240.177L242.222 14.079L242.631 20.8368H244.847L246.04 16.8947L246.279 20.8368H262.743C262.743 16.9535 261.436 13.2293 259.109 10.4834C256.782 7.73746 253.626 6.19482 250.335 6.19482H247.949C244.658 6.19483 241.502 7.73746 239.175 10.4834C236.848 13.2293 235.541 16.9535 235.541 20.8368Z" fill="#2F2E41"/>
<path d="M356.523 229H174.7C174.573 229 174.452 228.941 174.362 228.835C174.273 228.729 174.223 228.586 174.223 228.437C174.223 228.287 174.273 228.144 174.362 228.038C174.452 227.933 174.573 227.874 174.7 227.874H356.523C356.649 227.874 356.771 227.933 356.86 228.038C356.95 228.144 357 228.287 357 228.437C357 228.586 356.95 228.729 356.86 228.835C356.771 228.941 356.649 229 356.523 229Z" fill="#CBCBCB"/>
<path d="M205.327 19.1987H0V120.944H205.327V19.1987Z" fill="#CBCBCB"/>
<path d="M4.29492 115.876H201.032V24.2671H4.29492V115.876Z" fill="white"/>
<path d="M170.714 57.2265V96.291C170.714 96.8057 170.54 97.299 170.231 97.6629C169.923 98.0268 169.505 98.2317 169.069 98.2329H133.448C133.012 98.2317 132.594 98.0268 132.286 97.6629C131.977 97.2989 131.804 96.8057 131.803 96.291V57.2265C131.803 56.7116 131.976 56.2179 132.285 55.8538C132.594 55.4897 133.012 55.285 133.448 55.2847H169.069C169.505 55.285 169.924 55.4897 170.232 55.8538C170.541 56.2179 170.714 56.7116 170.714 57.2265Z" fill="#A67B5B"/>
<path d="M153.775 98.4292H148.741C148.311 98.4352 147.896 98.2394 147.587 97.8848C147.279 97.5301 147.102 97.0457 147.096 96.5375V56.0148C147.102 55.5067 147.279 55.0222 147.587 54.6676C147.896 54.313 148.311 54.1172 148.741 54.1232H153.775C154.205 54.1172 154.62 54.313 154.929 54.6676C155.237 55.0222 155.414 55.5067 155.42 56.0148V96.5375C155.414 97.0456 155.237 97.5301 154.929 97.8847C154.62 98.2394 154.205 98.4352 153.775 98.4292Z" fill="#3F3D56"/>
<path d="M150.222 43.0565C152.809 45.6988 151.992 51.8136 151.992 51.8136C151.992 51.8136 146.981 53.6445 144.394 51.0022C141.807 48.36 142.624 42.2452 142.624 42.2452C142.624 42.2452 147.635 40.4143 150.222 43.0565Z" fill="#3F3D56"/>
<path d="M158.813 50.4959C156.582 53.5568 151.398 52.612 151.398 52.612C151.398 52.612 149.831 46.7044 152.062 43.6434C154.293 40.5825 159.477 41.5273 159.477 41.5273C159.477 41.5273 161.044 47.4349 158.813 50.4959Z" fill="#3F3D56"/>
<path opacity="0.2" d="M170.714 57.2265V63.8035L131.803 63.6093V57.2265C131.803 56.7116 131.976 56.2179 132.285 55.8538C132.594 55.4897 133.012 55.285 133.448 55.2847H169.069C169.505 55.285 169.924 55.4897 170.232 55.8538C170.541 56.2179 170.714 56.7116 170.714 57.2265Z" fill="black"/>
<path d="M174.903 61.225C174.749 61.4639 174.55 61.6573 174.322 61.7901C174.094 61.9228 173.843 61.9912 173.589 61.9899L130.225 61.7753C130.009 61.7742 129.795 61.7229 129.595 61.6243C129.396 61.5258 129.215 61.3818 129.063 61.2008C128.911 61.0197 128.79 60.805 128.709 60.5691C128.627 60.3331 128.585 60.0804 128.586 59.8254L128.606 54.1141C128.608 53.5992 128.783 53.1063 129.093 52.7437C129.403 52.3811 129.822 52.1786 130.258 52.1807L173.623 52.3952C173.839 52.3963 174.052 52.4475 174.252 52.5461C174.451 52.6447 174.632 52.7886 174.784 52.9697C174.936 53.1507 175.057 53.3654 175.139 53.6014C175.22 53.8374 175.262 54.0901 175.261 54.3451L175.241 60.0563C175.24 60.4789 175.121 60.8895 174.903 61.225Z" fill="#A67B5B"/>
<path d="M147.199 51.8083L147.164 62.0884L155.488 62.1277L155.523 51.8477L147.199 51.8083Z" fill="#3F3D56"/>
<path d="M78.4352 54.7188H30.2988V59.2538H78.4352V54.7188Z" fill="#E5E5E5"/>
<path d="M104.632 71.2607H30.2988V75.7958H104.632V71.2607Z" fill="#A67B5B"/>
<path d="M90.8785 86.8452H30.2988V91.3803H90.8785V86.8452Z" fill="#E5E5E5"/>
<path d="M60.242 196.275C62.1143 197.052 64.1244 197.246 66.0789 196.84C68.0333 196.434 69.8662 195.441 71.4009 193.956C75.3092 190.084 76.5348 183.709 77.5316 177.803L80.4807 160.336L74.3066 165.353C69.8661 168.961 65.326 172.685 62.2518 177.91C59.1776 183.136 57.8364 190.27 60.3057 195.924" fill="#E6E6E6"/>
<path d="M61.1947 218.639C60.4176 211.958 59.618 205.19 60.1644 198.437C60.6487 192.44 62.1992 186.584 65.3559 181.78C67.0314 179.235 69.0702 177.055 71.3806 175.337C71.983 174.888 72.5375 176.015 71.9377 176.462C67.9399 179.443 64.8477 183.845 63.1069 189.034C61.1844 194.804 60.8757 201.095 61.2068 207.224C61.407 210.931 61.8324 214.614 62.2596 218.292C62.2933 218.458 62.2722 218.633 62.2006 218.782C62.1291 218.931 62.0123 219.042 61.8739 219.093C61.7328 219.138 61.5824 219.115 61.4553 219.03C61.3282 218.945 61.2347 218.804 61.1951 218.638L61.1947 218.639Z" fill="#F2F2F2"/>
<path d="M66.7891 207.918C67.5919 209.359 68.6956 210.531 69.9938 211.322C71.292 212.113 72.741 212.496 74.2011 212.434C77.9541 212.224 81.0817 209.134 83.8969 206.2L92.2254 197.522L86.7135 197.211C82.7496 196.987 78.6834 196.777 74.9079 198.221C71.1323 199.665 67.6504 203.135 66.9602 207.747" fill="#E6E6E6"/>
<path d="M58.9984 222.479C62.7397 214.667 67.0789 205.986 74.8331 203.211C76.9889 202.442 79.2495 202.166 81.493 202.399C82.2002 202.471 82.0236 203.757 81.3178 203.686C77.5571 203.317 73.8036 204.489 70.6893 207.004C67.6923 209.411 65.3588 212.758 63.384 216.306C62.1742 218.481 61.0906 220.747 60.0069 223.01C59.6607 223.733 58.6481 223.211 58.9984 222.479Z" fill="#F2F2F2"/>
<path d="M99.7763 223.931H34.8737C34.7471 223.931 34.6257 223.872 34.5363 223.767C34.4468 223.661 34.3965 223.518 34.3965 223.368C34.3965 223.219 34.4468 223.076 34.5363 222.97C34.6257 222.865 34.7471 222.805 34.8737 222.805H99.7763C99.9029 222.805 100.024 222.865 100.114 222.97C100.203 223.076 100.254 223.219 100.254 223.368C100.254 223.518 100.203 223.661 100.114 223.767C100.024 223.872 99.9029 223.931 99.7763 223.931Z" fill="#CBCBCB"/>
</g>
<defs>
<clipPath id="clip0_102_273">
<rect width="357" height="229" fill="white"/>
</clipPath>
</defs>
</svg>
