<svg width="361" height="275" viewBox="0 0 361 275" fill="none" xmlns="http://www.w3.org/2000/svg">
<g clip-path="url(#clip0_767_629)">
<path d="M144.454 57.0287H143.137V20.9065C143.137 18.1611 142.597 15.4425 141.548 12.906C140.499 10.3695 138.961 8.06474 137.022 6.12339C135.083 4.18204 132.781 2.64207 130.248 1.59142C127.714 0.540769 124.999 2.32619e-06 122.257 0H45.822C40.2842 -1.05702e-05 34.9731 2.20262 31.0572 6.12334C27.1413 10.0441 24.9414 15.3617 24.9414 20.9065V219.075C24.9414 221.821 25.4815 224.539 26.5308 227.076C27.5802 229.612 29.1182 231.917 31.0572 233.859C32.9961 235.8 35.298 237.34 37.8313 238.391C40.3647 239.441 43.0799 239.982 45.822 239.982H122.257C127.795 239.982 133.106 237.779 137.022 233.859C140.937 229.938 143.137 224.62 143.137 219.075V82.741H144.454V57.0287Z" fill="#3F3D56"/>
<path d="M123.099 5.43896H113.122C113.581 6.56526 113.756 7.78725 113.632 8.99729C113.508 10.2073 113.089 11.3683 112.411 12.3778C111.734 13.3874 110.818 14.2146 109.746 14.7867C108.674 15.3587 107.478 15.6579 106.263 15.658H62.4745C61.2596 15.6579 60.0634 15.3587 58.9912 14.7867C57.9191 14.2147 57.0038 13.3874 56.3262 12.3779C55.6486 11.3683 55.2293 10.2073 55.1053 8.99729C54.9814 7.78726 55.1565 6.56526 55.6153 5.43896H46.2965C44.2488 5.43896 42.2211 5.8428 40.3292 6.62741C38.4373 7.41203 36.7183 8.56205 35.2703 10.0118C33.8224 11.4616 32.6737 13.1827 31.8901 15.077C31.1065 16.9712 30.7031 19.0014 30.7031 21.0517V218.93C30.7031 220.98 31.1065 223.01 31.8901 224.905C32.6737 226.799 33.8223 228.52 35.2703 229.97C36.7183 231.42 38.4373 232.57 40.3292 233.354C42.2211 234.139 44.2488 234.543 46.2965 234.543H123.099C125.147 234.543 127.175 234.139 129.067 233.354C130.959 232.57 132.678 231.42 134.126 229.97C135.574 228.52 136.722 226.799 137.506 224.905C138.29 223.01 138.693 220.98 138.693 218.93V21.0517C138.693 19.0014 138.29 16.9712 137.506 15.077C136.722 13.1827 135.574 11.4616 134.126 10.0118C132.678 8.56205 130.959 7.41202 129.067 6.62741C127.175 5.8428 125.147 5.43896 123.099 5.43896Z" fill="white"/>
<path d="M168.953 240.016H0.442285C0.324984 240.016 0.212487 239.969 0.129542 239.886C0.0465974 239.803 0 239.691 0 239.573C0 239.456 0.0465974 239.343 0.129542 239.26C0.212487 239.177 0.324984 239.13 0.442285 239.13H168.953C169.07 239.13 169.183 239.177 169.266 239.26C169.349 239.343 169.395 239.456 169.395 239.573C169.395 239.691 169.349 239.803 169.266 239.886C169.183 239.969 169.07 240.016 168.953 240.016Z" fill="#CBCBCB"/>
<path d="M84.697 153.079C105.324 153.079 122.046 136.336 122.046 115.683C122.046 95.0302 105.324 78.2876 84.697 78.2876C64.0695 78.2876 47.3477 95.0302 47.3477 115.683C47.3477 136.336 64.0695 153.079 84.697 153.079Z" fill="#A67B5B"/>
<path d="M80.9974 129.949C80.1572 129.95 79.3393 129.678 78.667 129.173L78.6253 129.142L69.8477 122.419C69.4412 122.107 69.1001 121.718 68.8437 121.274C68.5874 120.83 68.421 120.339 68.3539 119.831C68.2868 119.322 68.3204 118.806 68.4528 118.31C68.5852 117.815 68.8137 117.35 69.1254 116.943C69.437 116.536 69.8257 116.195 70.2692 115.938C70.7127 115.681 71.2024 115.515 71.7102 115.447C72.218 115.38 72.7341 115.414 73.229 115.546C73.7238 115.679 74.1877 115.908 74.5943 116.22L80.2797 120.585L93.7146 103.036C94.0262 102.629 94.4147 102.288 94.858 102.031C95.3013 101.775 95.7908 101.608 96.2984 101.541C96.806 101.474 97.3219 101.507 97.8165 101.64C98.3112 101.772 98.7749 102.001 99.1813 102.313L99.1824 102.314L99.099 102.43L99.1847 102.314C100.004 102.945 100.541 103.875 100.676 104.902C100.811 105.928 100.534 106.966 99.9059 107.788L84.1035 128.421C83.7379 128.896 83.2678 129.281 82.7298 129.545C82.1917 129.809 81.6001 129.946 81.0009 129.944L80.9974 129.949Z" fill="white"/>
<path d="M307.053 243.692C307.508 242.956 308.043 242.273 308.648 241.657C308.898 241.397 309.161 241.153 309.433 240.915C311.084 239.444 313.097 238.439 315.265 238.004C317.433 237.57 319.677 237.721 321.767 238.443C323.857 239.165 325.717 240.431 327.157 242.112C328.596 243.792 329.562 245.826 329.956 248.004C331.78 241.25 327.032 234.597 322.257 229.487C317.481 224.378 312.022 218.774 312.049 211.774C312.062 207.879 313.965 204.404 316.839 201.828C316.927 201.75 317.016 201.672 317.106 201.596C320.579 198.616 325.047 197.057 329.618 197.231C338.109 197.686 345.523 203.4 350.672 210.178C358.96 221.084 362.592 236.393 356.79 248.807C351.687 259.726 340.802 266.21 329.693 271.422C328.142 272.15 326.594 272.856 325.049 273.541C325.039 273.543 325.028 273.55 325.017 273.553C324.943 273.586 324.869 273.619 324.799 273.652C324.48 273.793 324.161 273.934 323.845 274.073L323.992 274.169L324.448 274.465C324.29 274.369 324.133 274.276 323.975 274.18C323.928 274.151 323.878 274.124 323.831 274.094C318.375 270.817 312.843 267.349 309.074 262.232C305.165 256.919 303.593 249.308 307.053 243.692Z" fill="#F1F1F1"/>
<path d="M343.455 231.353C344.663 234.104 345.464 237.018 345.832 240.001C346.122 242.661 346.013 245.35 345.509 247.978C344.426 253.378 342.063 258.438 338.619 262.734C336.022 265.995 333.022 268.914 329.693 271.422C328.142 272.15 326.594 272.856 325.049 273.541C325.039 273.543 325.028 273.551 325.018 273.553C324.943 273.586 324.869 273.619 324.799 273.652C324.48 273.793 324.161 273.934 323.845 274.073L323.992 274.169L324.448 274.465C324.29 274.369 324.133 274.276 323.975 274.18C323.928 274.151 323.878 274.124 323.831 274.094C325.032 269.889 325.208 265.457 324.346 261.17C323.483 256.882 321.607 252.864 318.874 249.452C316.127 246.083 312.623 243.412 308.648 241.657C308.898 241.397 309.161 241.153 309.433 240.915C310.964 241.619 312.43 242.457 313.813 243.42C318.761 246.844 322.477 251.772 324.41 257.475C326.135 262.649 326.351 268.208 325.031 273.501C325.305 273.321 325.58 273.137 325.847 272.954C330.93 269.522 335.614 265.401 339.143 260.346C342.186 256.075 344.133 251.119 344.813 245.917C345.49 240.234 344.069 234.645 341.535 229.574C338.737 224.149 335.211 219.132 331.055 214.664C326.88 210.072 322.161 206.009 317.001 202.565C316.884 202.486 316.803 202.366 316.773 202.229C316.742 202.091 316.766 201.948 316.839 201.828C316.894 201.718 316.99 201.635 317.106 201.597C317.165 201.581 317.227 201.58 317.287 201.592C317.346 201.604 317.403 201.63 317.451 201.666C318.088 202.092 318.72 202.521 319.344 202.964C324.54 206.648 329.259 210.964 333.393 215.813C337.387 220.487 341.022 225.68 343.455 231.353Z" fill="white"/>
<path d="M232.219 17.3636C236.6 17.3636 240.151 13.8079 240.151 9.42179C240.151 5.03565 236.6 1.47998 232.219 1.47998C227.838 1.47998 224.287 5.03565 224.287 9.42179C224.287 13.8079 227.838 17.3636 232.219 17.3636Z" fill="#F1F1F1"/>
<path d="M330.848 123.644C333.519 123.644 335.684 121.476 335.684 118.802C335.684 116.128 333.519 113.96 330.848 113.96C328.177 113.96 326.012 116.128 326.012 118.802C326.012 121.476 328.177 123.644 330.848 123.644Z" fill="#F1F1F1"/>
<path d="M189.316 136.929C191.987 136.929 194.152 134.761 194.152 132.087C194.152 129.413 191.987 127.245 189.316 127.245C186.646 127.245 184.48 129.413 184.48 132.087C184.48 134.761 186.646 136.929 189.316 136.929Z" fill="#F1F1F1"/>
<path d="M192.048 275H360.558C360.676 275 360.788 274.953 360.871 274.87C360.954 274.787 361.001 274.675 361.001 274.557C361.001 274.44 360.954 274.327 360.871 274.244C360.788 274.161 360.676 274.114 360.558 274.114H192.048C191.93 274.114 191.818 274.161 191.735 274.244C191.652 274.327 191.605 274.44 191.605 274.557C191.605 274.675 191.652 274.787 191.735 274.87C191.818 274.953 191.93 275 192.048 275Z" fill="#CBCBCB"/>
<path d="M341.962 42.7933C342.184 41.2204 341.821 39.6209 340.943 38.2978C340.065 36.9748 338.733 36.0201 337.199 35.6147C335.665 35.2094 334.036 35.3815 332.62 36.0984C331.205 36.8154 330.101 38.0274 329.518 39.5047L315.844 55.2007L319.856 66.4207L333.608 48.0806C334.505 48.3684 335.455 48.4557 336.39 48.3363C337.324 48.217 338.222 47.8939 339.018 47.3898C339.815 46.8857 340.491 46.2129 341 45.4187C341.508 44.6246 341.837 43.7284 341.962 42.7933Z" fill="#FFB7B7"/>
<path d="M285.279 103.866L330.67 55.3631L324.548 45.6172L267.615 93.8259L285.279 103.866Z" fill="#3F3D56"/>
<path d="M275.149 74.3963C283.942 74.3963 291.071 67.2588 291.071 58.4542C291.071 49.6497 283.942 42.5122 275.149 42.5122C266.355 42.5122 259.227 49.6497 259.227 58.4542C259.227 67.2588 266.355 74.3963 275.149 74.3963Z" fill="#2F2E41"/>
<path d="M276.43 49.4484C279.856 45.9697 284.002 43.2853 288.576 41.584C291.512 40.4949 294.708 39.822 297.778 40.4405C300.848 41.059 303.751 43.1853 304.607 46.2008C305.307 48.6667 304.584 51.3217 303.497 53.6429C302.411 55.9641 300.96 58.1166 300.081 60.5245C299.184 62.9813 298.915 65.6235 299.296 68.2112C299.678 70.7989 300.7 73.2501 302.268 75.3423C303.836 77.4346 305.901 79.1016 308.275 80.1921C310.65 81.2825 313.259 81.7619 315.866 81.5867C312.85 81.9916 310.069 83.4107 307.121 84.1661C304.173 84.9215 300.694 84.8703 298.503 82.7556C296.185 80.5182 296.138 76.8804 296.251 73.6587C296.417 68.8694 296.584 64.0802 296.75 59.2909C296.835 56.8485 296.908 54.3278 296.028 52.0481C295.148 49.7685 293.058 47.7723 290.617 47.793C288.767 47.8087 287.13 48.9308 285.646 50.0373C284.163 51.1439 282.593 52.3244 280.75 52.489C278.907 52.6536 276.803 51.2883 276.941 49.4412L276.43 49.4484Z" fill="#2F2E41"/>
<path d="M214.676 165.497C213.147 165.922 211.516 165.771 210.091 165.073C208.667 164.374 207.547 163.177 206.945 161.707C206.343 160.237 206.301 158.598 206.826 157.099C207.351 155.6 208.407 154.346 209.794 153.574L223.549 137.949L235.183 140.466L218.82 156.513C219.222 157.367 219.432 158.298 219.436 159.241C219.44 160.185 219.238 161.117 218.843 161.974C218.448 162.83 217.87 163.59 217.15 164.199C216.43 164.807 215.585 165.251 214.676 165.497Z" fill="#FFB7B7"/>
<path d="M259.929 109.559L225.646 152.647L215.195 147.843L255.492 85.0293L259.929 109.559Z" fill="#3F3D56"/>
<path d="M232.575 239.666L224.404 239.538L225.387 267.422H232.574L232.575 239.666Z" fill="#FFB7B7"/>
<path d="M234.406 265.072L220.253 265.072H220.252C217.86 265.072 215.566 266.023 213.874 267.717C212.183 269.411 211.233 271.708 211.232 274.103V274.396L234.406 274.397L234.406 265.072Z" fill="#2F2E41"/>
<path d="M286.674 232.271L277.748 238.009L295.602 259.515L301.65 255.627L286.674 232.271Z" fill="#FFB7B7"/>
<path d="M301.924 252.659L290.014 260.315L290.014 260.315C288.001 261.609 286.584 263.651 286.074 265.991C285.565 268.331 286.004 270.778 287.297 272.794L287.455 273.041L306.956 260.505L301.924 252.659Z" fill="#2F2E41"/>
<path d="M289.854 147.127C289.854 147.127 270.022 81.177 263.648 80.2858C257.275 79.3946 247.006 97.2078 247.006 97.2078C233.692 114.216 219.963 169.31 219.963 169.31C219.963 169.31 242.85 170.744 259.58 179.657C276.31 188.569 296.054 179.205 296.054 179.205L289.854 147.127Z" fill="#3F3D56"/>
<path opacity="0.1" d="M289.854 147.127C289.854 147.127 270.022 81.1772 263.648 80.286C257.275 79.3947 249.614 97.3888 249.614 97.3888C242.98 124.844 219.963 169.311 219.963 169.311C219.963 169.311 242.85 170.745 259.58 179.657C276.31 188.569 296.054 179.206 296.054 179.206L289.854 147.127Z" fill="black"/>
<path d="M273.583 127.395V160.535L277.478 208.54L296.939 244.852L287.651 251.495L261.113 216.954L250.618 182.657L234.134 258.58L221.75 257.694L230.351 152.428L246.671 122.798L273.583 127.395Z" fill="#2F2E41"/>
<path d="M253.587 95.342C247.395 101.542 253.145 108.184 253.145 108.184L246.068 124.126L273.932 131.654L283.67 88.0892L277.036 81.0038C263.767 80.561 263.76 80.2856 263.76 80.2856C261.435 82.5635 253.587 95.342 253.587 95.342Z" fill="#A67B5B"/>
<path d="M284.792 83.5759C283.526 82.6405 282.088 81.9659 280.56 81.5911C279.033 81.2163 277.446 81.1487 275.892 81.3922C274.338 81.6358 272.847 82.1856 271.507 83.0099C270.167 83.8342 269.003 84.9166 268.084 86.1944C261.079 95.9599 254.602 111.729 263.526 131.395C277.856 162.974 290.326 179.139 295.395 179.137C295.616 179.139 295.836 179.105 296.047 179.035C299.167 177.975 303.679 172.688 304.495 168.029C304.788 166.362 304.718 164.039 302.726 162.444C297.005 157.863 286.734 143.597 283.53 124.819C281.76 114.444 285.193 104.993 288.386 98.8915C289.734 96.3669 290.129 93.4404 289.497 90.6483C288.865 87.8562 287.249 85.3856 284.946 83.6894L284.792 83.5759Z" fill="#3F3D56"/>
<path d="M275.968 72.83C281.647 69.7212 283.735 62.591 280.63 56.904C277.525 51.2171 270.404 49.1271 264.724 52.2359C259.044 55.3446 256.956 62.4749 260.061 68.1618C263.166 73.8487 270.288 75.9387 275.968 72.83Z" fill="#FFB7B7"/>
<path d="M253.863 61.6456H270.788L270.961 59.2127L271.829 61.6456H274.435L274.779 56.8238L276.499 61.6456H281.541V61.4067C281.537 58.0498 280.204 54.8315 277.833 52.4578C275.462 50.0841 272.248 48.7489 268.895 48.7451H266.509C263.156 48.7489 259.942 50.0841 257.571 52.4578C255.201 54.8315 253.867 58.0498 253.863 61.4067V61.6456Z" fill="#2F2E41"/>
<path d="M278.984 70.3902L286.206 68.0438V50.4829H272.564L272.902 50.8205C277.601 55.5194 282.828 72.1904 278.984 70.3902Z" fill="#2F2E41"/>
</g>
<defs>
<clipPath id="clip0_767_629">
<rect width="361" height="275" fill="white"/>
</clipPath>
</defs>
</svg>
